<svg width="87" height="87" viewBox="0 0 87 87" fill="none" xmlns="http://www.w3.org/2000/svg">
<path d="M43.5 0.947918C45.1396 0.947918 46.4687 2.27707 46.4687 3.91667V7.875C46.4687 9.5146 45.1396 10.8438 43.5 10.8438C41.8604 10.8438 40.5312 9.5146 40.5312 7.875V3.91667C40.5312 2.27707 41.8604 0.947918 43.5 0.947918Z" fill="white"/>
<path fill-rule="evenodd" clip-rule="evenodd" d="M20.7395 43.5C20.7395 30.9298 30.9297 20.7396 43.5 20.7396C56.0702 20.7396 66.2604 30.9298 66.2604 43.5C66.2604 56.0702 56.0702 66.2604 43.5 66.2604C30.9297 66.2604 20.7395 56.0702 20.7395 43.5ZM43.5 26.6771C34.2089 26.6771 26.677 34.209 26.677 43.5C26.677 52.791 34.2089 60.3229 43.5 60.3229C52.791 60.3229 60.3229 52.791 60.3229 43.5C60.3229 34.209 52.791 26.6771 43.5 26.6771Z" fill="white"/>
<path d="M17.6096 13.4112C16.4502 12.2519 14.5705 12.2519 13.4111 13.4112C12.2518 14.5706 12.2518 16.4503 13.4111 17.6097L16.2101 20.4086C17.3695 21.568 19.2492 21.568 20.4086 20.4086C21.5679 19.2493 21.5679 17.3696 20.4086 16.2102L17.6096 13.4112Z" fill="white"/>
<path d="M86.052 43.5C86.052 45.1396 84.7229 46.4688 83.0833 46.4688H79.125C77.4854 46.4688 76.1562 45.1396 76.1562 43.5C76.1562 41.8604 77.4854 40.5313 79.125 40.5313H83.0833C84.7229 40.5313 86.052 41.8604 86.052 43.5Z" fill="white"/>
<path d="M73.5887 17.6096C74.7481 16.4503 74.7481 14.5706 73.5887 13.4112C72.4294 12.2518 70.5497 12.2518 69.3903 13.4112L66.5913 16.2102C65.432 17.3695 65.432 19.2492 66.5913 20.4086C67.7507 21.568 69.6304 21.568 70.7898 20.4086L73.5887 17.6096Z" fill="white"/>
<path d="M43.5 76.1562C45.1396 76.1562 46.4687 77.4854 46.4687 79.125V83.0833C46.4687 84.7229 45.1396 86.0521 43.5 86.0521C41.8604 86.0521 40.5312 84.7229 40.5312 83.0833V79.125C40.5312 77.4854 41.8604 76.1562 43.5 76.1562Z" fill="white"/>
<path d="M70.79 66.5914C69.6307 65.4321 67.751 65.4321 66.5916 66.5914C65.4322 67.7508 65.4322 69.6305 66.5916 70.7899L69.3905 73.5888C70.5499 74.7482 72.4296 74.7482 73.589 73.5888C74.7484 72.4295 74.7484 70.5498 73.589 69.3904L70.79 66.5914Z" fill="white"/>
<path d="M10.8437 43.5C10.8437 45.1396 9.51455 46.4688 7.87496 46.4688H3.91663C2.27703 46.4688 0.947876 45.1396 0.947876 43.5C0.947876 41.8604 2.27703 40.5313 3.91663 40.5313H7.87496C9.51455 40.5313 10.8437 41.8604 10.8437 43.5Z" fill="white"/>
<path d="M20.4083 70.7898C21.5677 69.6305 21.5677 67.7508 20.4083 66.5914C19.2489 65.432 17.3692 65.432 16.2098 66.5914L13.4109 69.3903C12.2515 70.5497 12.2515 72.4294 13.4109 73.5888C14.5703 74.7482 16.45 74.7482 17.6093 73.5888L20.4083 70.7898Z" fill="white"/>
</svg>
